{"glyphs":{"0":{"ha":740,"x_min":0,"x_max":0,"o":"m 656 275 l 656 714 b 369 997 656 890 526 997 b 85 714 213 997 85 890 l 85 275 b 369 -8 85 99 213 -8 b 656 275 526 -8 656 99 z m 514 279 b 369 118 514 183 460 118 b 226 279 279 118 226 183 l 226 710 b 369 871 226 806 279 871 b 514 710 460 871 514 806 z "},"1":{"ha":740,"x_min":0,"x_max":0,"o":"m 493 0 l 493 989 l 351 989 l 158 822 l 158 665 l 351 835 l 351 0 z "},"2":{"ha":740,"x_min":0,"x_max":0,"o":"m 663 0 l 663 126 l 260 126 l 569 506 b 663 719 631 581 663 632 b 376 997 663 890 546 997 b 89 718 208 997 89 886 l 231 718 b 376 871 231 829 301 871 b 521 721 468 871 521 810 b 468 589 521 671 506 635 l 88 126 l 88 0 z "},"3":{"ha":740,"x_min":0,"x_max":0,"o":"m 664 278 b 525 511 664 400 610 474 b 649 722 601 549 649 617 b 361 999 649 886 529 999 b 71 729 203 999 79 897 l 213 729 b 361 871 219 817 275 871 b 507 718 442 871 507 818 b 357 568 507 628 460 568 l 333 568 l 333 444 l 357 444 b 522 282 468 444 522 382 b 361 118 522 178 453 118 b 200 268 279 118 206 163 l 58 268 b 361 -10 64 75 203 -10 b 664 278 526 -10 664 88 z "},"4":{"ha":740,"x_min":0,"x_max":0,"o":"m 692 149 l 692 281 l 586 281 l 586 511 l 449 511 l 449 281 l 203 281 l 550 989 l 397 989 l 49 281 l 49 149 l 449 149 l 449 0 l 586 0 l 586 149 z "},"5":{"ha":740,"x_min":0,"x_max":0,"o":"m 665 331 b 579 594 665 424 654 519 b 401 658 539 635 479 658 b 238 601 329 658 271 636 l 238 863 l 643 863 l 643 989 l 110 989 l 110 449 l 239 449 b 379 538 254 497 299 538 b 524 331 493 538 524 449 b 476 157 524 264 518 199 b 374 118 451 132 415 118 b 229 256 285 118 240 168 l 88 256 b 163 67 93 185 110 119 b 374 -10 206 24 279 -10 b 582 68 469 -10 538 24 b 665 331 654 140 665 225 z "},"6":{"ha":740,"x_min":0,"x_max":0,"o":"m 663 293 b 403 579 663 467 546 579 b 315 564 372 579 342 575 l 528 989 l 376 989 l 151 531 b 78 288 108 444 78 368 b 371 -8 78 104 200 -8 b 663 293 542 -8 663 111 z m 521 290 b 369 118 521 185 458 118 b 219 290 281 118 219 185 b 369 461 219 397 281 461 b 521 290 464 461 521 388 z "},"7":{"ha":740,"x_min":0,"x_max":0,"o":"m 676 863 l 676 989 l 88 989 l 88 707 l 224 707 l 224 863 l 525 863 l 193 0 l 346 0 z "},"8":{"ha":740,"x_min":0,"x_max":0,"o":"m 675 279 b 539 511 675 397 608 469 b 658 724 603 550 658 619 b 369 997 658 889 531 997 b 82 724 208 997 82 889 b 201 511 82 619 138 550 b 65 279 132 469 65 397 b 369 -8 65 100 200 -8 b 675 279 539 -8 675 100 z m 517 719 b 369 569 517 632 456 569 b 224 719 283 569 224 632 b 369 871 224 806 283 871 b 517 719 456 871 517 806 z m 532 282 b 369 118 532 190 461 118 b 207 282 278 118 207 190 b 369 447 207 374 278 447 b 532 282 461 447 532 374 z "},"9":{"ha":740,"x_min":0,"x_max":0,"o":"m 663 701 b 369 997 663 885 540 997 b 78 696 199 997 78 878 b 336 410 78 522 193 410 b 425 425 367 410 399 414 l 213 0 l 364 0 l 589 458 b 663 701 632 544 663 621 z m 521 699 b 369 528 521 592 458 528 b 219 699 275 528 219 601 b 369 871 219 804 281 871 b 521 699 458 871 521 804 z "}," ":{"ha":333,"x_min":0,"x_max":0,"o":""},"!":{"ha":461,"x_min":0,"x_max":0,"o":"m 340 989 l 168 989 l 199 294 l 310 294 z m 332 0 l 332 151 l 176 151 l 176 0 z "},"\"":{"ha":617,"x_min":0,"x_max":0,"o":"m 508 724 l 508 989 l 368 989 l 368 724 z m 249 724 l 249 989 l 108 989 l 108 724 z "},"#":{"ha":933,"x_min":0,"x_max":0,"o":"m 865 592 l 865 722 l 757 722 l 800 994 l 653 994 l 610 722 l 421 722 l 464 994 l 315 994 l 272 722 l 140 722 l 140 592 l 253 592 l 225 419 l 94 419 l 94 289 l 204 289 l 158 0 l 307 0 l 351 289 l 542 289 l 496 0 l 643 0 l 689 289 l 819 289 l 819 419 l 710 419 l 738 592 z m 589 592 l 563 419 l 372 419 l 400 592 z "},"$":{"ha":844,"x_min":0,"x_max":0,"o":"m 772 282 b 692 485 772 367 746 438 b 507 558 650 522 599 544 l 460 565 l 460 865 b 642 790 531 860 593 836 l 738 885 b 472 996 663 956 582 989 l 472 1119 l 358 1119 l 358 994 b 75 707 181 978 75 865 b 149 518 75 626 100 564 b 335 439 189 481 256 449 l 371 435 l 371 126 b 142 221 282 131 208 154 l 42 122 b 358 -8 129 33 226 -3 l 358 -158 l 472 -158 l 472 -4 b 772 282 651 13 772 117 z m 371 575 b 258 621 328 581 288 594 b 221 713 232 644 221 676 b 371 864 221 793 274 854 z m 624 278 b 460 129 624 192 563 139 l 460 424 b 585 381 507 417 547 414 b 624 278 611 357 624 321 z "},"%":{"ha":1169,"x_min":0,"x_max":0,"o":"m 1089 181 l 1089 321 b 894 511 1089 440 1003 511 b 700 321 786 511 700 440 l 700 181 b 894 -10 700 61 786 -10 b 1089 181 1003 -10 1089 61 z m 874 989 l 761 989 l 294 0 l 408 0 z m 469 668 l 469 808 b 275 999 469 928 383 999 b 81 808 167 999 81 928 l 81 668 b 275 479 81 549 167 479 b 469 668 383 479 469 549 z m 982 185 b 894 85 982 122 954 85 b 807 185 835 85 807 121 l 807 317 b 894 417 807 381 835 417 b 982 317 954 417 982 379 z m 363 672 b 275 574 363 610 335 574 b 188 672 215 574 188 608 l 188 804 b 275 904 188 868 215 904 b 363 804 335 904 363 867 z "},"&":{"ha":1014,"x_min":0,"x_max":0,"o":"m 950 0 l 785 197 b 883 501 851 275 879 375 l 747 501 b 694 303 746 411 731 354 l 486 551 b 558 601 510 568 558 601 b 664 776 621 644 664 699 b 429 997 664 903 569 997 b 188 778 282 997 188 904 b 290 565 188 686 246 617 b 94 286 193 501 94 424 b 414 -8 94 107 208 -8 b 688 97 564 -8 644 60 l 768 0 z m 528 775 b 456 672 528 729 494 699 b 408 640 456 672 424 650 b 332 776 358 699 332 736 b 429 874 332 832 368 874 b 528 775 488 874 528 831 z m 603 197 b 414 121 538 139 481 121 b 235 289 311 121 235 190 b 368 476 235 381 296 426 z "},"’":{"ha":372,"x_min":0,"x_max":0,"o":"m 264 843 l 264 989 l 108 989 l 108 717 z "},"(":{"ha":440,"x_min":0,"x_max":0,"o":"m 360 -35 b 282 57 326 -1 303 18 b 261 171 268 83 261 121 l 261 818 b 282 932 261 868 268 906 b 360 1024 303 971 326 990 l 264 1119 b 151 988 219 1075 179 1038 b 119 826 122 936 119 882 l 119 163 b 151 1 119 107 122 53 b 264 -131 179 -49 219 -86 z "},")":{"ha":440,"x_min":0,"x_max":0,"o":"m 322 163 l 322 826 b 289 988 322 882 318 936 b 178 1119 261 1038 222 1075 l 81 1022 b 157 931 114 989 136 969 b 178 818 171 904 178 867 l 178 171 b 157 58 178 122 171 85 b 81 -33 136 19 114 0 l 178 -131 b 289 1 222 -86 261 -49 b 322 163 318 53 322 107 z "},"*":{"ha":674,"x_min":0,"x_max":0,"o":"m 589 647 l 429 732 l 589 818 l 538 908 l 383 813 l 389 993 l 285 993 l 290 813 l 136 908 l 85 818 l 244 732 l 85 647 l 136 557 l 290 653 l 285 471 l 389 471 l 383 653 l 538 557 z "},"+":{"ha":740,"x_min":0,"x_max":0,"o":"m 669 313 l 669 444 l 436 444 l 436 676 l 304 676 l 304 444 l 71 444 l 71 313 l 304 313 l 304 79 l 436 79 l 436 313 z "},",":{"ha":378,"x_min":0,"x_max":0,"o":"m 269 -83 l 269 161 l 108 161 l 108 -215 z "},"-":{"ha":592,"x_min":0,"x_max":0,"o":"m 499 319 l 499 451 l 93 451 l 93 319 z "},".":{"ha":386,"x_min":0,"x_max":0,"o":"m 278 0 l 278 169 l 108 169 l 108 0 z "},"/":{"ha":528,"x_min":0,"x_max":0,"o":"m 532 1092 l 396 1092 l 0 -103 l 136 -103 z "},":":{"ha":421,"x_min":0,"x_max":0,"o":"m 313 396 l 313 565 l 144 565 l 144 396 z m 313 0 l 313 169 l 144 169 l 144 0 z "},";":{"ha":421,"x_min":0,"x_max":0,"o":"m 313 396 l 313 565 l 144 565 l 144 396 z m 308 -83 l 308 161 l 147 161 l 147 -215 z "},"<":{"ha":1426,"x_min":0,"x_max":0,"o":"m 1353 318 l 1353 453 l 319 453 l 799 929 l 617 929 l 72 385 l 617 -158 l 799 -158 l 319 318 z "},"=":{"ha":740,"x_min":0,"x_max":0,"o":"m 669 454 l 669 586 l 71 586 l 71 454 z m 669 185 l 669 317 l 71 317 l 71 185 z "},">":{"ha":1426,"x_min":0,"x_max":0,"o":"m 1354 385 l 810 929 l 628 929 l 1107 453 l 72 453 l 72 318 l 1107 318 l 628 -158 l 810 -158 z "},"?":{"ha":710,"x_min":0,"x_max":0,"o":"m 653 732 b 375 997 653 896 526 997 b 99 731 218 997 99 888 l 240 731 b 375 871 240 806 289 871 b 511 732 456 871 511 810 b 468 626 511 693 493 660 l 360 481 b 313 343 326 436 313 400 l 313 294 l 454 294 l 454 336 b 479 411 454 358 464 390 l 586 561 b 653 732 624 613 653 665 z m 461 0 l 461 151 l 304 151 l 304 0 z "},"@":{"ha":1022,"x_min":0,"x_max":0,"o":"m 933 -3 l 933 668 b 850 911 933 772 910 851 b 613 993 792 969 711 993 l 410 993 b 171 911 308 993 229 969 b 89 668 113 851 89 772 l 89 226 b 199 -17 89 103 117 50 l 296 81 b 226 233 242 124 226 156 l 226 667 b 278 817 226 733 236 775 b 424 868 317 856 364 868 l 599 868 b 746 817 658 868 708 854 b 797 667 785 776 797 732 l 797 582 b 622 660 753 633 699 660 b 439 581 546 660 479 629 b 379 325 389 521 379 447 b 442 68 379 200 389 128 b 624 -10 485 19 549 -10 b 800 69 704 -10 756 17 l 800 0 z m 797 325 b 656 111 797 206 772 111 b 515 325 539 111 515 206 b 656 540 515 444 539 540 b 797 325 772 540 797 444 z "},"A":{"ha":868,"x_min":0,"x_max":0,"o":"m 857 0 l 494 989 l 374 989 l 11 0 l 171 0 l 239 199 l 629 199 l 697 0 z m 588 326 l 283 326 l 438 765 z "},"B":{"ha":921,"x_min":0,"x_max":0,"o":"m 828 279 b 679 508 828 404 756 478 b 813 718 746 535 813 611 b 514 989 813 885 697 989 l 129 989 l 129 0 l 529 0 b 828 279 704 0 828 97 z m 663 713 b 501 571 663 621 597 571 l 279 571 l 279 854 l 501 854 b 663 713 597 854 663 804 z m 678 286 b 515 135 678 199 619 135 l 279 135 l 279 436 l 515 436 b 678 286 619 436 678 374 z "},"C":{"ha":872,"x_min":0,"x_max":0,"o":"m 801 296 l 650 296 b 449 126 626 196 558 126 b 303 186 390 126 338 149 b 243 494 254 239 243 296 b 303 803 243 693 254 750 b 449 863 338 840 390 863 b 649 693 558 863 625 793 l 801 693 b 449 997 767 890 631 997 b 189 892 346 997 257 960 b 93 494 92 794 93 685 b 189 97 93 304 92 194 b 449 -8 257 29 346 -8 b 801 296 628 -8 768 99 z "},"D":{"ha":925,"x_min":0,"x_max":0,"o":"m 832 501 b 732 896 832 644 839 789 b 476 989 669 958 579 989 l 129 989 l 129 0 l 476 0 b 732 93 579 0 669 31 b 832 501 839 200 832 358 z m 682 501 b 629 201 682 365 681 258 b 461 135 588 156 532 135 l 279 135 l 279 854 l 461 854 b 629 788 532 854 588 833 b 682 501 681 731 682 638 z "},"E":{"ha":838,"x_min":0,"x_max":0,"o":"m 761 0 l 761 135 l 279 135 l 279 432 l 690 432 l 690 565 l 279 565 l 279 854 l 761 854 l 761 989 l 129 989 l 129 0 z "},"F":{"ha":813,"x_min":0,"x_max":0,"o":"m 761 854 l 761 989 l 129 989 l 129 0 l 279 0 l 279 418 l 690 418 l 690 553 l 279 553 l 279 854 z "},"G":{"ha":901,"x_min":0,"x_max":0,"o":"m 810 383 l 810 535 l 449 535 l 449 407 l 660 407 l 660 351 b 610 196 660 288 646 238 b 449 126 571 151 514 126 b 303 186 390 126 338 149 b 243 494 254 239 243 296 b 303 801 243 693 254 749 b 449 863 338 839 390 863 b 657 690 560 863 632 799 l 808 690 b 449 997 781 860 658 997 b 189 892 343 997 257 960 b 93 494 92 794 93 685 b 189 97 93 304 92 194 b 449 -8 257 29 346 -8 b 721 104 553 -8 646 25 b 810 383 786 174 810 256 z "},"H":{"ha":960,"x_min":0,"x_max":0,"o":"m 831 0 l 831 989 l 681 989 l 681 567 l 279 567 l 279 989 l 129 989 l 129 0 l 279 0 l 279 432 l 681 432 l 681 0 z "},"I":{"ha":408,"x_min":0,"x_max":0,"o":"m 279 0 l 279 989 l 129 989 l 129 0 z "},"J":{"ha":703,"x_min":0,"x_max":0,"o":"m 588 313 l 588 989 l 438 989 l 438 324 b 258 126 438 194 369 126 b 118 186 186 126 153 151 l 18 88 b 258 -8 86 19 157 -8 b 588 313 440 -8 588 107 z "},"K":{"ha":914,"x_min":0,"x_max":0,"o":"m 900 0 l 546 601 l 867 989 l 683 989 l 279 492 l 279 989 l 129 989 l 129 0 l 279 0 l 279 288 l 446 488 l 724 0 z "},"L":{"ha":797,"x_min":0,"x_max":0,"o":"m 756 0 l 756 135 l 279 135 l 279 989 l 129 989 l 129 0 z "},"M":{"ha":1129,"x_min":0,"x_max":0,"o":"m 1001 0 l 1001 989 l 851 989 l 568 374 l 279 989 l 129 989 l 129 0 l 279 0 l 279 661 l 513 179 l 624 179 l 851 661 l 851 0 z "},"N":{"ha":1003,"x_min":0,"x_max":0,"o":"m 874 0 l 874 989 l 724 989 l 724 294 l 267 989 l 129 989 l 129 0 l 279 0 l 279 696 l 736 0 z "},"O":{"ha":897,"x_min":0,"x_max":0,"o":"m 804 494 b 710 892 804 685 807 794 b 449 997 642 960 554 997 b 189 892 343 997 257 960 b 93 494 92 794 93 685 b 189 97 93 304 92 194 b 449 -8 257 29 343 -8 b 710 97 554 -8 642 29 b 804 494 807 194 804 304 z m 654 494 b 596 188 654 296 644 240 b 449 126 561 150 507 126 b 301 188 390 126 336 150 b 243 494 253 240 243 296 b 301 801 243 693 253 749 b 449 863 336 839 390 863 b 596 801 507 863 561 839 b 654 494 644 749 654 693 z "},"P":{"ha":874,"x_min":0,"x_max":0,"o":"m 821 689 b 504 989 821 861 697 989 l 129 989 l 129 0 l 279 0 l 279 389 l 504 389 b 821 689 697 389 821 517 z m 671 689 b 496 525 671 585 600 525 l 279 525 l 279 854 l 496 854 b 671 689 600 854 671 793 z "},"Q":{"ha":897,"x_min":0,"x_max":0,"o":"m 838 39 l 740 135 b 804 494 806 224 804 326 b 710 892 804 685 807 794 b 449 997 642 960 554 997 b 189 892 343 997 257 960 b 93 494 92 794 93 685 b 189 97 93 304 92 194 b 449 -8 257 29 343 -8 b 656 54 526 -8 599 14 l 754 -44 z m 654 494 b 625 250 654 367 650 300 l 529 346 l 446 263 l 550 158 b 449 126 521 138 486 126 b 301 188 390 126 336 150 b 243 494 253 240 243 296 b 301 801 243 693 253 749 b 449 863 336 839 390 863 b 596 801 507 863 561 839 b 654 494 644 749 654 693 z "},"R":{"ha":910,"x_min":0,"x_max":0,"o":"m 850 0 l 622 438 b 819 700 733 468 819 558 b 513 989 819 868 700 989 l 129 989 l 129 0 l 279 0 l 279 417 l 467 417 l 675 0 z m 669 699 b 501 544 669 601 601 544 l 279 544 l 279 854 l 501 854 b 669 699 601 854 669 796 z "},"S":{"ha":819,"x_min":0,"x_max":0,"o":"m 747 282 b 667 485 747 367 721 438 b 482 558 625 522 574 544 l 369 575 b 258 621 324 582 283 599 b 221 713 232 644 221 676 b 401 867 221 800 285 867 b 617 790 485 867 556 849 l 713 885 b 406 997 628 964 536 997 b 75 707 200 997 75 879 b 147 518 75 626 99 564 b 335 439 190 478 254 450 l 451 422 b 560 381 510 414 535 404 b 599 278 586 357 599 321 b 394 126 599 182 524 126 b 142 221 293 126 214 149 l 42 122 b 392 -8 136 26 243 -8 b 747 282 599 -8 747 100 z "},"T":{"ha":778,"x_min":0,"x_max":0,"o":"m 736 854 l 736 989 l 42 989 l 42 854 l 314 854 l 314 0 l 464 0 l 464 854 z "},"U":{"ha":938,"x_min":0,"x_max":0,"o":"m 824 333 l 824 989 l 674 989 l 674 340 b 468 126 674 208 592 126 b 264 340 344 126 264 208 l 264 989 l 114 989 l 114 333 b 468 -8 114 129 267 -8 b 824 333 669 -8 824 129 z "},"V":{"ha":783,"x_min":0,"x_max":0,"o":"m 776 989 l 618 989 l 390 269 l 163 989 l 7 989 l 332 0 l 449 0 z "},"W":{"ha":1210,"x_min":0,"x_max":0,"o":"m 1194 989 l 1036 989 l 864 282 l 665 989 l 544 989 l 346 282 l 174 989 l 15 989 l 274 0 l 404 0 l 604 693 l 806 0 l 936 0 z "},"X":{"ha":803,"x_min":0,"x_max":0,"o":"m 789 0 l 482 507 l 768 989 l 596 989 l 400 635 l 206 989 l 33 989 l 319 507 l 14 0 l 186 0 l 400 379 l 615 0 z "},"Y":{"ha":756,"x_min":0,"x_max":0,"o":"m 749 989 l 585 989 l 378 554 l 171 989 l 7 989 l 303 407 l 303 0 l 453 0 l 453 407 z "},"Z":{"ha":767,"x_min":0,"x_max":0,"o":"m 700 0 l 700 135 l 240 135 l 700 867 l 700 989 l 86 989 l 86 854 l 524 854 l 67 129 l 67 0 z "},"[":{"ha":482,"x_min":0,"x_max":0,"o":"m 422 -103 l 422 24 l 261 24 l 261 965 l 422 965 l 422 1092 l 119 1092 l 119 -103 z "},"\\":{"ha":528,"x_min":0,"x_max":0,"o":"m 528 -103 l 136 1081 l 0 1081 l 392 -103 z "},"]":{"ha":482,"x_min":0,"x_max":0,"o":"m 363 -103 l 363 1092 l 60 1092 l 60 967 l 224 967 l 224 22 l 60 22 l 60 -103 z "},"^":{"ha":793,"x_min":0,"x_max":0,"o":"m 699 557 l 461 999 l 332 999 l 93 557 l 240 557 l 396 844 l 551 557 z "},"_":{"ha":793,"x_min":0,"x_max":0,"o":"m 793 -239 l 793 -142 l 0 -142 l 0 -239 z "},"‘":{"ha":372,"x_min":0,"x_max":0,"o":"m 264 844 l 264 1118 l 108 989 l 108 844 z "},"a":{"ha":736,"x_min":0,"x_max":0,"o":"m 631 0 l 631 471 b 340 713 631 631 533 713 b 88 611 224 713 154 689 l 181 524 b 335 592 219 574 257 592 b 489 460 444 592 489 549 l 489 410 l 303 410 b 60 207 142 410 60 325 b 115 56 60 147 79 93 b 304 -8 158 13 217 -8 b 492 64 392 -8 440 13 l 492 0 z m 489 254 b 458 150 489 204 479 171 b 326 110 421 114 381 110 b 197 210 238 110 197 146 b 324 311 197 274 240 311 l 489 311 z "},"b":{"ha":768,"x_min":0,"x_max":0,"o":"m 689 353 b 610 650 689 460 681 579 b 439 713 571 689 510 713 b 254 633 364 713 306 694 l 254 989 l 113 989 l 113 0 l 251 0 l 251 75 b 438 -8 304 11 361 -8 b 610 54 508 -8 571 15 b 689 353 681 125 689 246 z m 547 353 b 401 118 547 228 529 118 b 254 353 274 118 254 228 b 401 586 254 478 274 586 b 547 353 529 586 547 478 z "},"c":{"ha":674,"x_min":0,"x_max":0,"o":"m 622 92 l 525 185 b 390 118 481 136 446 118 b 260 181 336 118 290 140 b 218 353 229 219 218 271 b 260 524 218 435 229 485 b 390 586 290 564 336 586 b 525 519 446 586 481 568 l 622 614 b 390 713 556 685 488 713 b 76 353 232 713 76 617 b 390 -8 76 89 232 -8 b 622 92 488 -8 556 21 z "},"d":{"ha":768,"x_min":0,"x_max":0,"o":"m 656 0 l 656 989 l 514 989 l 514 633 b 329 713 463 694 404 713 b 158 650 258 713 197 689 b 79 353 88 579 79 460 b 158 54 79 246 88 125 b 331 -8 197 15 260 -8 b 517 75 407 -8 464 11 l 517 0 z m 514 353 b 368 118 514 228 496 118 b 221 353 240 118 221 228 b 368 586 221 478 240 586 b 514 353 496 586 514 478 z "},"e":{"ha":749,"x_min":0,"x_max":0,"o":"m 674 311 l 674 374 b 375 713 674 574 564 713 b 76 353 194 713 76 581 b 393 -8 76 85 217 -8 b 657 101 517 -8 585 29 l 567 186 b 396 114 517 136 475 114 b 217 311 281 114 217 190 z m 533 410 l 217 410 b 235 506 218 453 221 474 b 375 594 257 558 308 594 b 514 506 442 594 492 558 b 533 410 528 474 532 453 z "},"f":{"ha":456,"x_min":0,"x_max":0,"o":"m 417 583 l 417 692 l 276 692 l 276 793 b 354 875 276 844 301 875 l 417 875 l 417 996 l 328 996 b 135 800 196 996 135 901 l 135 692 l 54 692 l 54 583 l 135 583 l 135 0 l 276 0 l 276 583 z "},"g":{"ha":763,"x_min":0,"x_max":0,"o":"m 650 4 l 650 704 l 513 704 l 513 629 b 328 713 460 693 403 713 b 158 651 257 713 197 690 b 79 365 90 583 79 485 b 158 79 79 246 90 147 b 326 17 197 40 256 17 b 508 97 399 17 457 36 l 508 7 b 343 -172 508 -87 463 -172 b 190 -110 274 -172 235 -151 l 100 -200 b 349 -293 174 -268 242 -293 b 650 4 536 -293 650 -168 z m 508 365 b 365 144 508 254 493 144 b 221 365 238 144 221 254 b 365 586 221 476 238 586 b 508 365 493 586 508 476 z "},"h":{"ha":786,"x_min":0,"x_max":0,"o":"m 681 0 l 681 454 b 436 713 681 607 593 713 b 254 633 367 713 303 686 l 254 989 l 113 989 l 113 0 l 254 0 l 254 432 b 397 586 254 538 318 586 b 539 432 476 586 539 539 l 539 0 z "},"i":{"ha":367,"x_min":0,"x_max":0,"o":"m 258 843 l 258 993 l 108 993 l 108 843 z m 254 0 l 254 704 l 113 704 l 113 0 z "},"j":{"ha":367,"x_min":0,"x_max":0,"o":"m 258 843 l 258 993 l 108 993 l 108 843 z m 254 -93 l 254 704 l 113 704 l 113 -85 b 36 -167 113 -139 93 -167 l -26 -167 l -26 -287 l 61 -287 b 254 -93 196 -287 254 -197 z "},"k":{"ha":761,"x_min":0,"x_max":0,"o":"m 731 0 l 456 428 l 700 704 l 528 704 l 254 379 l 254 989 l 113 989 l 113 0 l 254 0 l 254 207 l 358 325 l 556 0 z "},"l":{"ha":432,"x_min":0,"x_max":0,"o":"m 389 0 l 389 121 l 326 121 b 250 203 269 121 250 149 l 250 989 l 108 989 l 108 194 b 301 0 108 90 167 0 z "},"m":{"ha":1218,"x_min":0,"x_max":0,"o":"m 1113 0 l 1113 450 b 1038 649 1113 529 1092 596 b 860 713 996 689 932 713 b 639 610 767 713 696 679 b 439 713 594 678 526 713 b 251 633 368 713 299 685 l 251 704 l 113 704 l 113 0 l 254 0 l 254 429 b 400 586 254 538 321 586 b 542 429 479 586 542 539 l 542 0 l 683 0 l 683 436 b 829 586 683 538 753 586 b 971 429 908 586 971 539 l 971 0 z "},"n":{"ha":789,"x_min":0,"x_max":0,"o":"m 683 0 l 683 450 b 613 649 683 529 667 596 b 439 713 571 689 511 713 b 251 633 368 713 300 686 l 251 704 l 113 704 l 113 0 l 254 0 l 254 429 b 400 586 254 538 321 586 b 542 429 479 586 542 539 l 542 0 z "},"o":{"ha":746,"x_min":0,"x_max":0,"o":"m 667 353 b 583 629 667 471 650 560 b 372 713 538 676 468 713 b 163 629 276 713 208 676 b 79 353 96 560 79 471 b 163 75 79 233 96 144 b 372 -8 208 28 276 -8 b 583 75 468 -8 538 28 b 667 353 650 144 667 233 z m 525 353 b 476 160 525 276 519 203 b 372 118 450 133 414 118 b 269 160 331 118 296 133 b 221 353 226 203 221 276 b 269 546 221 429 226 503 b 372 586 296 572 331 586 b 476 546 414 586 450 572 b 525 353 519 503 525 429 z "},"p":{"ha":768,"x_min":0,"x_max":0,"o":"m 689 353 b 610 650 689 460 681 579 b 438 713 571 689 508 713 b 251 629 361 713 304 693 l 251 704 l 113 704 l 113 -285 l 254 -285 l 254 72 b 439 -8 306 11 364 -8 b 610 54 510 -8 571 15 b 689 353 681 125 689 246 z m 547 353 b 401 118 547 228 529 118 b 254 353 274 118 254 228 b 401 586 254 478 274 586 b 547 353 529 586 547 478 z "},"q":{"ha":768,"x_min":0,"x_max":0,"o":"m 656 -285 l 656 704 l 517 704 l 517 629 b 331 713 464 693 407 713 b 158 650 260 713 197 689 b 79 353 88 579 79 460 b 158 54 79 246 88 125 b 329 -8 197 15 258 -8 b 514 72 404 -8 463 11 l 514 -285 z m 514 353 b 368 118 514 228 496 118 b 221 353 240 118 221 228 b 368 586 221 478 240 586 b 514 353 496 586 514 478 z "},"r":{"ha":610,"x_min":0,"x_max":0,"o":"m 607 646 b 439 713 558 694 507 713 b 251 628 360 713 288 678 l 251 704 l 113 704 l 113 0 l 254 0 l 254 428 b 394 586 254 525 318 586 b 500 539 443 586 468 571 z "},"s":{"ha":693,"x_min":0,"x_max":0,"o":"m 633 215 b 424 414 633 340 556 403 l 313 424 b 215 504 238 431 215 463 b 343 594 215 557 258 594 b 517 543 410 594 472 581 l 606 633 b 344 713 540 690 450 713 b 79 497 197 713 79 635 b 288 303 79 374 156 314 l 400 293 b 494 210 468 288 494 257 b 340 113 494 143 426 113 b 138 186 271 113 194 128 l 44 93 b 340 -8 128 11 225 -8 b 633 215 508 -8 633 68 z "},"t":{"ha":475,"x_min":0,"x_max":0,"o":"m 407 0 l 407 121 l 349 121 b 271 203 296 121 271 151 l 271 583 l 407 583 l 407 692 l 271 692 l 271 906 l 129 906 l 129 692 l 49 692 l 49 583 l 129 583 l 129 196 b 322 0 129 94 190 0 z "},"u":{"ha":789,"x_min":0,"x_max":0,"o":"m 676 0 l 676 704 l 535 704 l 535 275 b 389 118 535 167 468 118 b 247 275 310 118 247 165 l 247 704 l 106 704 l 106 254 b 176 56 106 175 122 108 b 350 -8 218 15 278 -8 b 538 71 421 -8 489 18 l 538 0 z "},"v":{"ha":654,"x_min":0,"x_max":0,"o":"m 643 704 l 493 704 l 328 208 l 161 704 l 11 704 l 269 0 l 385 0 z "},"w":{"ha":1032,"x_min":0,"x_max":0,"o":"m 1021 704 l 869 704 l 733 208 l 571 704 l 461 704 l 297 208 l 161 704 l 11 704 l 229 0 l 351 0 l 515 492 l 681 0 l 801 0 z "},"x":{"ha":699,"x_min":0,"x_max":0,"o":"m 668 0 l 428 360 l 658 704 l 488 704 l 350 475 l 211 704 l 40 704 l 272 360 l 31 0 l 201 0 l 350 240 l 497 0 z "},"y":{"ha":650,"x_min":0,"x_max":0,"o":"m 644 704 l 493 704 l 329 208 l 161 704 l 11 704 l 257 33 l 218 -76 b 117 -151 197 -133 176 -151 l 81 -151 l 81 -279 l 138 -279 b 282 -228 192 -279 243 -267 b 333 -140 303 -207 319 -179 z "},"z":{"ha":651,"x_min":0,"x_max":0,"o":"m 585 0 l 585 126 l 232 126 l 585 592 l 585 704 l 79 704 l 79 578 l 410 578 l 60 113 l 60 0 z "},"{":{"ha":565,"x_min":0,"x_max":0,"o":"m 503 -103 l 503 24 l 449 24 b 368 43 404 24 382 28 b 347 132 353 58 347 83 l 347 356 b 256 494 347 446 300 475 b 347 633 300 514 347 543 l 347 857 b 368 946 347 906 353 931 b 449 965 382 961 404 965 l 503 965 l 503 1092 l 404 1092 b 256 1044 333 1092 288 1076 b 206 899 219 1008 206 965 l 206 667 b 181 583 206 628 197 600 b 114 557 165 568 144 557 l 63 557 l 63 432 l 114 432 b 181 406 144 432 165 421 b 206 322 197 389 206 361 l 206 90 b 256 -56 206 24 219 -19 b 404 -103 288 -87 333 -103 z "},"|":{"ha":469,"x_min":0,"x_max":0,"o":"m 306 -103 l 306 1092 l 164 1092 l 164 -103 z "},"}":{"ha":565,"x_min":0,"x_max":0,"o":"m 503 432 l 503 557 l 453 557 b 385 583 422 557 400 568 b 360 667 368 600 360 628 l 360 899 b 310 1044 360 965 346 1008 b 161 1092 278 1076 232 1092 l 63 1092 l 63 965 l 117 965 b 197 946 161 965 183 961 b 218 857 213 931 218 906 l 218 633 b 311 494 218 543 267 514 b 218 356 267 475 218 446 l 218 132 b 197 43 218 83 213 58 b 117 24 183 28 161 24 l 63 24 l 63 -103 l 161 -103 b 310 -56 232 -103 278 -87 b 360 90 346 -19 360 24 l 360 322 b 385 406 360 361 368 389 b 453 432 400 421 422 432 z "},"~":{"ha":797,"x_min":0,"x_max":0,"o":"m 738 389 l 647 478 b 529 417 594 425 568 417 b 418 450 490 417 457 431 b 264 496 361 478 318 496 b 60 388 190 496 142 469 l 149 299 b 267 360 201 351 228 360 b 376 326 306 360 338 346 b 532 281 433 299 478 281 b 738 389 606 281 656 307 z "},"¡":{"ha":461,"x_min":0,"x_max":0,"o":"m 285 553 l 285 704 l 129 704 l 129 553 z m 293 -285 l 263 410 l 151 410 l 121 -285 z "},"¢":{"ha":692,"x_min":0,"x_max":0,"o":"m 638 256 l 543 347 b 429 281 507 307 475 288 l 429 736 b 543 669 475 729 507 710 l 638 761 b 442 864 579 824 521 854 l 442 989 l 331 989 l 331 863 b 76 508 182 838 76 715 b 331 154 76 301 182 179 l 331 0 l 442 0 l 442 153 b 638 256 521 163 579 193 z m 343 283 b 261 338 310 290 282 310 b 218 508 232 378 218 428 b 263 679 218 590 233 639 b 343 733 283 707 310 726 z "},"£":{"ha":783,"x_min":0,"x_max":0,"o":"m 717 0 l 717 135 l 297 135 l 297 435 l 476 435 l 476 543 l 297 543 l 297 665 b 476 863 297 794 365 863 b 617 803 549 863 582 838 l 717 901 b 476 997 649 969 578 997 b 146 676 294 997 146 882 l 146 543 l 60 543 l 60 435 l 146 435 l 146 0 z "},"⁄":{"ha":274,"x_min":0,"x_max":0,"o":"m 426 989 l 313 989 l -153 0 l -39 0 z "},"¥":{"ha":756,"x_min":0,"x_max":0,"o":"m 747 989 l 585 989 l 379 553 l 171 989 l 7 989 l 211 586 l 90 586 l 90 478 l 267 478 l 303 407 l 303 335 l 90 335 l 90 226 l 303 226 l 303 0 l 453 0 l 453 226 l 665 226 l 665 335 l 453 335 l 453 407 l 489 478 l 665 478 l 665 586 l 544 586 z "},"ƒ":{"ha":576,"x_min":0,"x_max":0,"o":"m 535 875 l 535 996 l 447 996 b 221 800 315 996 239 901 l 175 543 l 42 543 l 42 435 l 156 435 l 29 -285 l 171 -285 l 297 435 l 457 435 l 457 543 l 317 543 l 361 793 b 453 875 371 844 400 875 z "},"§":{"ha":754,"x_min":0,"x_max":0,"o":"m 656 367 b 458 625 656 503 586 586 l 361 654 b 257 767 297 674 257 710 b 379 874 257 835 301 874 b 504 768 450 874 499 843 l 640 768 b 379 997 636 901 543 997 b 121 763 215 997 121 892 b 238 576 121 661 169 610 b 103 360 174 544 103 468 b 299 101 103 222 171 140 l 396 72 b 504 -50 472 49 504 0 b 378 -167 504 -122 457 -167 b 247 -57 300 -167 253 -125 l 108 -57 b 378 -293 114 -219 242 -293 b 643 -46 518 -293 643 -204 b 521 150 643 58 590 119 b 656 367 583 182 656 258 z m 517 363 b 476 253 517 307 499 276 b 379 214 453 228 421 214 b 281 253 338 214 304 228 b 242 363 258 276 242 308 b 281 474 242 415 256 447 b 379 513 304 499 338 513 b 476 474 421 513 451 497 b 517 363 504 447 517 413 z "},"¤":{"ha":924,"x_min":0,"x_max":0,"o":"m 829 113 l 726 215 b 779 388 760 264 779 324 b 726 560 779 451 760 511 l 829 661 l 736 754 l 633 653 b 461 704 585 686 525 704 b 289 653 397 704 338 686 l 188 754 l 94 661 l 196 560 b 143 388 163 511 143 451 b 196 215 143 324 163 264 l 94 113 l 188 19 l 289 122 b 461 69 338 89 397 69 b 633 122 525 69 585 89 l 736 19 z m 650 388 b 461 199 650 283 565 199 b 272 388 357 199 272 283 b 461 575 272 492 357 575 b 650 388 565 575 650 492 z "},"'":{"ha":357,"x_min":0,"x_max":0,"o":"m 249 724 l 249 989 l 108 989 l 108 724 z "},"“":{"ha":638,"x_min":0,"x_max":0,"o":"m 529 844 l 529 1118 l 374 989 l 374 844 z m 264 844 l 264 1118 l 108 989 l 108 844 z "},"«":{"ha":822,"x_min":0,"x_max":0,"o":"m 722 58 l 722 229 l 572 378 l 722 525 l 722 696 l 403 378 z m 371 58 l 371 229 l 222 378 l 371 525 l 371 696 l 51 378 z "},"‹":{"ha":471,"x_min":0,"x_max":0,"o":"m 371 58 l 371 229 l 222 378 l 371 525 l 371 696 l 51 378 z "},"›":{"ha":471,"x_min":0,"x_max":0,"o":"m 421 378 l 100 696 l 100 525 l 250 378 l 100 229 l 100 58 z "},"ﬁ":{"ha":810,"x_min":0,"x_max":0,"o":"m 701 867 l 701 993 l 550 993 l 550 867 z m 696 0 l 696 692 l 554 692 l 554 0 z m 413 583 l 413 692 l 274 692 l 274 793 b 350 875 274 844 297 875 l 413 875 l 413 996 l 325 996 b 132 800 193 996 132 901 l 132 692 l 51 692 l 51 583 l 132 583 l 132 0 l 274 0 l 274 583 z "},"ﬂ":{"ha":869,"x_min":0,"x_max":0,"o":"m 832 0 l 832 121 l 769 121 b 693 203 713 121 693 149 l 693 989 l 551 989 l 551 194 b 744 0 551 90 610 0 z m 413 583 l 413 692 l 274 692 l 274 793 b 350 875 274 844 297 875 l 413 875 l 413 996 l 325 996 b 132 800 193 996 132 901 l 132 692 l 51 692 l 51 583 l 132 583 l 132 0 l 274 0 l 274 583 z "},"–":{"ha":740,"x_min":0,"x_max":0,"o":"m 669 319 l 669 451 l 71 451 l 71 319 z "},"†":{"ha":821,"x_min":0,"x_max":0,"o":"m 731 593 l 731 719 l 481 719 l 481 989 l 339 989 l 339 719 l 90 719 l 90 593 l 339 593 l 339 0 l 481 0 l 481 593 z "},"‡":{"ha":821,"x_min":0,"x_max":0,"o":"m 731 -15 l 731 113 l 481 113 l 481 593 l 731 593 l 731 719 l 481 719 l 481 989 l 339 989 l 339 719 l 90 719 l 90 593 l 339 593 l 339 113 l 90 113 l 90 -15 l 339 -15 l 339 -285 l 481 -285 l 481 -15 z "},"·":{"ha":386,"x_min":0,"x_max":0,"o":"m 278 301 l 278 471 l 108 471 l 108 301 z "},"¶":{"ha":885,"x_min":0,"x_max":0,"o":"m 756 -285 l 756 989 l 365 989 b 53 713 175 989 53 878 b 322 440 53 567 169 440 l 322 -285 l 464 -285 l 464 854 l 614 854 l 614 -285 z "},"•":{"ha":711,"x_min":0,"x_max":0,"o":"m 582 464 b 356 690 582 589 481 690 b 129 464 231 690 129 589 b 356 238 129 339 231 238 b 582 464 481 238 582 339 z "},"‚":{"ha":371,"x_min":0,"x_max":0,"o":"m 264 0 l 264 146 l 108 146 l 108 -128 z "},"„":{"ha":639,"x_min":0,"x_max":0,"o":"m 529 0 l 529 146 l 374 146 l 374 -128 z m 264 0 l 264 146 l 108 146 l 108 -128 z "},"”":{"ha":638,"x_min":0,"x_max":0,"o":"m 529 843 l 529 989 l 374 989 l 374 717 z m 264 843 l 264 989 l 108 989 l 108 717 z "},"»":{"ha":822,"x_min":0,"x_max":0,"o":"m 772 378 l 451 696 l 451 525 l 600 378 l 451 229 l 451 58 z m 421 378 l 100 696 l 100 525 l 250 378 l 100 229 l 100 58 z "},"…":{"ha":1115,"x_min":0,"x_max":0,"o":"m 1007 0 l 1007 163 l 844 163 l 844 0 z m 639 0 l 639 163 l 476 163 l 476 0 z m 271 0 l 271 163 l 108 163 l 108 0 z "},"‰":{"ha":1661,"x_min":0,"x_max":0,"o":"m 1089 181 l 1089 321 b 894 511 1089 440 1003 511 b 700 321 786 511 700 440 l 700 181 b 894 -10 700 61 786 -10 b 1089 181 1003 -10 1089 61 z m 874 989 l 761 989 l 294 0 l 408 0 z m 469 668 l 469 808 b 275 999 469 928 383 999 b 81 808 167 999 81 928 l 81 668 b 275 479 81 549 167 479 b 469 668 383 479 469 549 z m 982 185 b 894 85 982 122 954 85 b 807 185 835 85 807 121 l 807 317 b 894 417 807 381 835 417 b 982 317 954 417 982 379 z m 363 672 b 275 574 363 610 335 574 b 188 672 215 574 188 608 l 188 804 b 275 904 188 868 215 904 b 363 804 335 904 363 867 z m 1581 181 l 1581 321 b 1386 511 1581 440 1494 511 b 1192 321 1278 511 1192 440 l 1192 181 b 1386 -10 1192 61 1278 -10 b 1581 181 1494 -10 1581 61 z m 1474 185 b 1386 85 1474 122 1446 85 b 1299 185 1326 85 1299 121 l 1299 317 b 1386 417 1299 381 1326 417 b 1474 317 1446 417 1474 379 z "},"¿":{"ha":710,"x_min":0,"x_max":0,"o":"m 404 553 l 404 704 l 249 704 l 249 553 z m 611 -26 l 469 -26 b 333 -165 469 -101 419 -165 b 199 -28 253 -165 199 -106 b 242 78 199 11 217 44 l 349 224 b 397 361 382 268 397 304 l 397 411 l 256 411 l 256 369 b 231 294 256 347 246 315 l 122 144 b 57 -26 85 93 57 40 b 333 -293 57 -190 182 -293 b 611 -26 490 -293 611 -183 z "},"`":{"ha":694,"x_min":0,"x_max":0,"o":"m 419 832 l 315 1057 l 158 1057 l 313 832 z "},"´":{"ha":694,"x_min":0,"x_max":0,"o":"m 536 1057 l 379 1057 l 275 832 l 382 832 z "},"ˆ":{"ha":694,"x_min":0,"x_max":0,"o":"m 586 832 l 407 1056 l 288 1056 l 108 832 l 226 832 l 347 967 l 468 832 z "},"˜":{"ha":694,"x_min":0,"x_max":0,"o":"m 582 926 l 515 992 b 433 949 478 954 456 949 b 357 975 406 949 385 958 b 253 1008 319 997 293 1008 b 108 932 208 1008 171 994 l 175 867 b 256 908 214 906 232 908 b 333 882 283 908 307 897 b 438 850 369 861 397 850 b 582 926 481 850 519 864 z "},"¯":{"ha":694,"x_min":0,"x_max":0,"o":"m 563 864 l 563 965 l 132 965 l 132 864 z "},"˘":{"ha":694,"x_min":0,"x_max":0,"o":"m 576 1021 l 476 1021 b 349 922 468 956 417 922 b 221 1021 281 922 229 956 l 118 1021 b 349 819 126 882 218 819 b 576 1021 479 819 568 882 z "},"˙":{"ha":694,"x_min":0,"x_max":0,"o":"m 422 861 l 422 988 l 272 988 l 272 861 z "},"¨":{"ha":694,"x_min":0,"x_max":0,"o":"m 561 839 l 561 989 l 433 989 l 433 839 z m 261 839 l 261 989 l 133 989 l 133 839 z "},"˚":{"ha":694,"x_min":0,"x_max":0,"o":"m 521 974 b 347 1147 521 1069 443 1147 b 174 974 251 1147 174 1069 b 347 800 174 878 251 800 b 521 974 443 800 521 878 z m 436 974 b 347 886 436 925 396 886 b 258 974 299 886 258 925 b 347 1061 258 1022 299 1061 b 436 974 396 1061 436 1022 z "},"¸":{"ha":694,"x_min":0,"x_max":0,"o":"m 443 -89 l 329 -89 l 232 -293 l 372 -293 z "},"˝":{"ha":694,"x_min":0,"x_max":0,"o":"m 633 1057 l 478 1057 l 372 832 l 478 832 z m 376 1057 l 219 1057 l 115 832 l 222 832 z "},"˛":{"ha":694,"x_min":0,"x_max":0,"o":"m 457 -293 l 360 -89 l 246 -89 l 317 -293 z "},"ˇ":{"ha":694,"x_min":0,"x_max":0,"o":"m 586 1056 l 468 1056 l 347 921 l 226 1056 l 108 1056 l 288 832 l 407 832 z "},"—":{"ha":1350,"x_min":0,"x_max":0,"o":"m 1257 321 l 1257 456 l 93 456 l 93 321 z "},"Æ":{"ha":1322,"x_min":0,"x_max":0,"o":"m 1246 0 l 1246 135 l 764 135 l 764 429 l 1175 429 l 1175 564 l 764 564 l 764 854 l 1246 854 l 1246 989 l 526 989 l 7 0 l 171 0 l 288 225 l 614 225 l 614 0 z m 614 353 l 353 353 l 614 854 z "},"ª":{"ha":628,"x_min":0,"x_max":0,"o":"m 526 426 l 526 801 b 296 994 526 928 450 994 b 93 914 203 994 146 976 l 169 842 b 290 896 201 882 229 896 b 411 793 376 896 411 863 l 411 754 l 265 754 b 72 592 138 754 72 686 b 117 471 72 544 88 500 b 267 421 151 436 197 421 b 414 476 335 421 374 436 l 414 426 z m 411 629 b 388 549 411 589 404 564 b 283 518 360 521 326 518 b 185 594 214 518 185 544 b 282 674 185 644 217 674 l 411 674 z "},"Ł":{"ha":815,"x_min":0,"x_max":0,"o":"m 774 0 l 774 135 l 299 135 l 299 465 l 494 589 l 494 715 l 299 592 l 299 989 l 149 989 l 149 497 l 53 438 l 53 308 l 149 369 l 149 0 z "},"Ø":{"ha":906,"x_min":0,"x_max":0,"o":"m 804 494 b 710 892 804 685 807 794 b 700 900 707 894 703 897 l 772 1050 l 657 1050 l 615 960 b 449 997 567 983 510 997 b 189 892 343 997 257 960 b 93 494 92 794 93 685 b 189 97 93 304 92 194 b 197 89 192 94 194 92 l 126 -61 l 240 -61 l 283 29 b 449 -8 332 6 388 -8 b 710 97 554 -8 642 29 b 804 494 807 194 804 304 z m 560 832 l 272 231 b 244 494 250 278 244 347 b 303 801 244 693 254 749 b 449 863 338 839 390 863 b 560 832 490 863 528 851 z m 654 494 b 596 188 654 296 644 240 b 449 126 561 150 507 126 b 339 157 407 126 369 138 l 626 758 b 654 494 650 711 654 642 z "},"Œ":{"ha":1357,"x_min":0,"x_max":0,"o":"m 1281 0 l 1281 133 l 804 133 b 804 433 804 207 804 360 l 1208 433 l 1208 564 l 804 564 b 804 856 804 636 804 783 l 1279 856 l 1279 989 l 654 989 l 654 908 b 446 997 600 971 525 997 b 189 894 340 997 257 963 b 93 494 93 799 93 685 b 189 94 93 304 93 190 b 446 -8 257 26 340 -8 b 654 81 519 -8 600 18 l 654 0 z m 654 494 b 596 188 654 296 644 240 b 449 126 561 150 507 126 b 303 188 390 126 338 150 b 244 494 254 240 244 296 b 303 801 244 693 254 749 b 449 863 338 839 390 863 b 596 801 507 863 561 839 b 654 494 644 749 654 693 z "},"º":{"ha":636,"x_min":0,"x_max":0,"o":"m 553 708 b 486 928 553 803 540 872 b 318 994 450 965 394 994 b 151 928 242 994 188 965 b 85 708 97 872 85 803 b 151 488 85 613 97 543 b 318 421 188 450 242 421 b 486 488 394 421 450 450 b 553 708 540 543 553 613 z m 436 708 b 400 556 436 649 435 590 b 318 524 379 535 351 524 b 238 556 285 524 258 535 b 200 708 203 590 200 649 b 238 860 200 768 203 825 b 318 892 258 881 285 892 b 400 860 351 892 379 881 b 436 708 435 825 436 768 z "},"æ":{"ha":1163,"x_min":0,"x_max":0,"o":"m 1086 311 l 1086 374 b 788 713 1086 574 976 713 b 579 619 700 713 629 681 b 340 713 536 681 457 713 b 88 611 224 713 154 689 l 181 524 b 335 592 219 574 257 592 b 489 460 444 592 489 549 l 489 410 l 303 410 b 60 207 142 410 60 325 b 115 56 60 149 79 93 b 304 -8 158 13 215 -8 b 557 101 414 -8 486 14 b 806 -8 614 25 703 -8 b 1069 101 929 -8 997 29 l 979 186 b 808 114 929 136 888 114 b 629 311 692 114 629 190 z m 946 410 l 629 410 b 649 506 631 453 635 474 b 788 594 671 558 721 594 b 928 506 854 594 906 558 b 946 410 942 474 944 453 z m 489 254 b 458 150 489 204 479 171 b 326 110 421 114 381 110 b 197 210 238 110 197 146 b 324 311 197 274 240 311 l 489 311 z "},"ı":{"ha":367,"x_min":0,"x_max":0,"o":"m 254 0 l 254 704 l 113 704 l 113 0 z "},"ł":{"ha":453,"x_min":0,"x_max":0,"o":"m 408 0 l 408 121 l 346 121 b 269 203 289 121 269 149 l 269 532 l 367 593 l 367 713 l 269 653 l 269 989 l 128 989 l 128 567 l 46 517 l 46 396 l 128 446 l 128 194 b 321 0 128 90 186 0 z "},"ø":{"ha":746,"x_min":0,"x_max":0,"o":"m 667 353 b 583 629 667 471 650 560 l 665 765 l 569 765 l 518 678 b 372 713 479 699 431 713 b 163 629 276 713 208 676 b 79 353 96 560 79 471 b 161 76 79 235 94 146 l 81 -61 l 176 -61 l 228 26 b 372 -8 267 6 314 -8 b 583 75 468 -8 538 28 b 667 353 650 144 667 233 z m 456 563 l 242 201 b 221 353 224 243 221 297 b 269 546 221 429 226 503 b 372 586 296 572 331 586 b 456 563 404 586 432 578 z m 525 353 b 476 160 525 276 519 203 b 372 118 450 133 414 118 b 290 143 340 118 313 128 l 504 504 b 525 353 522 463 525 408 z "},"œ":{"ha":1197,"x_min":0,"x_max":0,"o":"m 1121 311 l 1121 374 b 822 713 1121 574 1011 713 b 600 600 725 713 649 674 b 372 713 556 669 475 713 b 163 629 276 713 208 676 b 79 353 96 560 79 471 b 163 75 79 233 96 144 b 372 -8 208 28 276 -8 b 599 103 474 -8 554 35 b 842 -8 653 26 739 -8 b 1104 101 965 -8 1032 29 l 1014 186 b 843 114 964 136 922 114 b 664 311 728 114 664 190 z m 981 410 l 664 410 b 683 506 665 453 669 474 b 822 594 706 558 756 594 b 963 506 889 594 940 558 b 981 410 976 474 979 453 z m 525 353 b 476 160 525 276 519 203 b 372 118 450 133 414 118 b 269 160 331 118 296 133 b 221 353 226 203 221 276 b 269 546 221 429 226 503 b 372 586 296 572 331 586 b 476 546 414 586 450 572 b 525 353 519 503 525 429 z "},"ß":{"ha":785,"x_min":0,"x_max":0,"o":"m 696 211 l 696 440 b 608 600 696 529 668 569 b 694 761 658 632 694 679 b 410 999 694 925 571 999 b 113 725 235 999 113 908 l 113 0 l 256 0 l 256 717 b 406 874 256 813 296 874 b 518 840 457 874 493 864 b 553 757 539 821 553 790 b 450 653 553 689 508 653 l 407 653 l 407 540 l 456 540 b 528 514 486 540 511 531 b 553 440 546 497 553 475 l 553 224 b 524 144 553 188 543 160 b 451 121 504 128 486 121 l 407 121 l 407 0 l 481 0 b 639 54 553 0 600 18 b 696 211 676 89 696 144 z "},"Ð":{"ha":950,"x_min":0,"x_max":0,"o":"m 857 494 b 782 857 857 689 857 760 b 503 989 715 943 619 989 l 156 989 l 156 557 l 53 557 l 53 442 l 156 442 l 156 0 l 499 0 b 782 131 624 0 719 53 b 857 494 854 219 857 292 z m 707 490 b 669 221 707 306 703 271 b 485 133 631 164 569 133 l 306 133 l 306 442 l 497 442 l 497 557 l 306 557 l 306 856 l 485 856 b 664 769 567 856 621 829 b 707 490 703 717 707 669 z "},"ð":{"ha":746,"x_min":0,"x_max":0,"o":"m 661 346 b 574 668 661 475 644 538 l 503 799 l 572 799 l 572 899 l 451 899 l 397 996 l 247 996 l 301 899 l 193 899 l 193 799 l 354 799 l 417 686 b 311 689 383 694 344 694 b 167 618 251 679 201 654 b 85 346 100 550 85 463 b 167 74 85 229 100 142 b 372 -8 211 26 279 -8 b 579 74 465 -8 535 26 b 661 346 646 142 661 229 z m 519 346 b 474 158 519 272 515 201 b 372 118 449 133 413 118 b 272 158 332 118 297 133 b 226 346 231 201 226 272 b 272 533 226 419 231 490 b 372 574 297 558 332 574 b 474 533 413 574 449 558 b 519 346 515 490 519 419 z "},"Š":{"ha":819,"x_min":0,"x_max":0,"o":"m 747 282 b 667 485 747 367 721 438 b 482 558 625 522 574 544 l 369 575 b 258 621 324 582 283 599 b 221 713 232 644 221 676 b 401 867 221 800 285 867 b 617 790 485 867 556 849 l 713 885 b 406 997 628 964 536 997 b 75 707 200 997 75 879 b 147 518 75 626 99 564 b 335 439 190 478 254 450 l 451 422 b 560 381 510 414 535 404 b 599 278 586 357 599 321 b 394 126 599 182 524 126 b 142 221 293 126 214 149 l 42 122 b 392 -8 136 26 243 -8 b 747 282 599 -8 747 100 z m 644 1308 l 526 1308 l 406 1174 l 285 1308 l 167 1308 l 346 1085 l 465 1085 z "},"š":{"ha":693,"x_min":0,"x_max":0,"o":"m 633 215 b 424 414 633 340 556 403 l 313 424 b 215 504 238 431 215 463 b 343 594 215 557 258 594 b 517 543 410 594 472 581 l 606 633 b 344 713 540 690 450 713 b 79 497 197 713 79 635 b 288 303 79 374 156 314 l 400 293 b 494 210 468 288 494 257 b 340 113 494 143 426 113 b 138 186 271 113 194 128 l 44 93 b 340 -8 128 11 225 -8 b 633 215 508 -8 633 68 z m 583 1056 l 465 1056 l 344 921 l 224 1056 l 106 1056 l 285 832 l 404 832 z "},"Ý":{"ha":756,"x_min":0,"x_max":0,"o":"m 749 989 l 585 989 l 378 554 l 171 989 l 7 989 l 303 407 l 303 0 l 453 0 l 453 407 z m 567 1310 l 410 1310 l 306 1085 l 413 1085 z "},"ý":{"ha":650,"x_min":0,"x_max":0,"o":"m 644 704 l 493 704 l 329 208 l 161 704 l 11 704 l 257 33 l 218 -76 b 117 -151 197 -133 176 -151 l 81 -151 l 81 -279 l 138 -279 b 282 -228 192 -279 243 -267 b 333 -140 303 -207 319 -179 z m 514 1057 l 357 1057 l 253 832 l 360 832 z "},"Þ":{"ha":885,"x_min":0,"x_max":0,"o":"m 821 499 b 504 799 821 671 697 799 l 279 799 l 279 989 l 129 989 l 129 0 l 279 0 l 279 200 l 504 200 b 821 499 697 200 821 326 z m 669 499 b 494 335 669 394 599 335 l 279 335 l 279 664 l 494 664 b 669 499 599 664 669 603 z "},"þ":{"ha":769,"x_min":0,"x_max":0,"o":"m 689 353 b 610 650 689 460 681 579 b 439 713 571 689 510 713 b 254 633 364 713 306 694 l 254 989 l 113 989 l 113 -285 l 254 -285 l 254 72 b 439 -8 306 11 364 -8 b 610 54 510 -8 571 15 b 689 353 681 125 689 246 z m 547 353 b 401 118 547 228 529 118 b 254 353 274 118 254 228 b 401 586 254 478 274 586 b 547 353 529 586 547 478 z "},"Ž":{"ha":767,"x_min":0,"x_max":0,"o":"m 700 0 l 700 135 l 240 135 l 700 867 l 700 989 l 86 989 l 86 854 l 524 854 l 67 129 l 67 0 z m 629 1308 l 511 1308 l 390 1174 l 269 1308 l 151 1308 l 331 1085 l 450 1085 z "},"ž":{"ha":651,"x_min":0,"x_max":0,"o":"m 585 0 l 585 126 l 232 126 l 585 592 l 585 704 l 79 704 l 79 578 l 410 578 l 60 113 l 60 0 z m 571 1056 l 453 1056 l 332 921 l 211 1056 l 93 1056 l 272 832 l 392 832 z "},"½":{"ha":1149,"x_min":0,"x_max":0,"o":"m 1086 0 l 1086 96 l 854 96 l 1022 290 b 1086 426 1063 338 1086 369 b 906 599 1086 533 1010 599 b 726 426 803 599 726 533 l 832 426 b 906 503 832 485 868 503 b 979 426 953 503 979 472 b 949 354 979 399 971 381 l 726 96 l 726 0 z m 817 989 l 704 989 l 239 0 l 351 0 z m 283 396 l 283 989 l 176 989 l 56 885 l 56 764 l 176 869 l 176 396 z "},"¼":{"ha":1122,"x_min":0,"x_max":0,"o":"m 1067 85 l 1067 183 l 1011 183 l 1011 299 l 908 299 l 908 183 l 782 183 l 986 593 l 871 593 l 667 183 l 667 85 l 908 85 l 908 0 l 1011 0 l 1011 85 z m 828 989 l 715 989 l 250 0 l 363 0 z m 283 396 l 283 989 l 176 989 l 56 885 l 56 764 l 176 869 l 176 396 z "},"¹":{"ha":385,"x_min":0,"x_max":0,"o":"m 283 396 l 283 989 l 176 989 l 56 885 l 56 764 l 176 869 l 176 396 z "},"¾":{"ha":1172,"x_min":0,"x_max":0,"o":"m 1117 85 l 1117 183 l 1061 183 l 1061 299 l 960 299 l 960 183 l 833 183 l 1038 593 l 921 593 l 718 183 l 718 85 l 960 85 l 960 0 l 1061 0 l 1061 85 z m 886 989 l 774 989 l 308 0 l 421 0 z m 440 567 b 363 701 440 639 406 679 b 432 825 403 722 432 761 b 251 994 432 925 356 994 b 71 826 153 994 74 932 l 176 826 b 251 899 179 872 208 899 b 326 821 292 899 326 872 b 249 744 326 778 301 744 l 233 744 l 233 653 l 249 653 b 333 569 304 653 333 619 b 253 485 333 515 300 485 b 169 564 210 485 171 510 l 63 564 b 253 389 64 440 156 389 b 440 567 354 389 440 449 z "},"³":{"ha":503,"x_min":0,"x_max":0,"o":"m 440 567 b 363 701 440 639 406 679 b 432 825 403 722 432 761 b 251 994 432 925 356 994 b 71 826 153 994 74 932 l 176 826 b 251 899 179 872 208 899 b 326 821 292 899 326 872 b 249 744 326 778 301 744 l 233 744 l 233 653 l 249 653 b 333 569 304 653 333 619 b 253 485 333 515 300 485 b 169 564 210 485 171 510 l 63 564 b 253 389 64 440 156 389 b 440 567 354 389 440 449 z "},"²":{"ha":486,"x_min":0,"x_max":0,"o":"m 424 396 l 424 492 l 192 492 l 360 686 b 424 822 400 733 424 765 b 243 994 424 929 347 994 b 63 822 140 994 63 929 l 169 822 b 243 899 169 881 206 899 b 317 822 290 899 317 868 b 286 750 317 794 308 776 l 63 492 l 63 396 z "},"¦":{"ha":478,"x_min":0,"x_max":0,"o":"m 306 606 l 306 1092 l 164 1092 l 164 606 z m 306 -103 l 306 383 l 164 383 l 164 -103 z "},"−":{"ha":740,"x_min":0,"x_max":0,"o":"m 669 319 l 669 451 l 71 451 l 71 319 z "},"×":{"ha":740,"x_min":0,"x_max":0,"o":"m 661 183 l 458 386 l 661 589 l 572 678 l 369 475 l 168 678 l 79 589 l 282 386 l 79 183 l 168 96 l 369 297 l 572 96 z "},"Ä":{"ha":868,"x_min":0,"x_max":0,"o":"m 857 0 l 494 989 l 374 989 l 11 0 l 171 0 l 239 199 l 629 199 l 697 0 z m 588 326 l 283 326 l 438 765 z m 644 1092 l 644 1242 l 517 1242 l 517 1092 z m 344 1092 l 344 1242 l 217 1242 l 217 1092 z "},"Å":{"ha":868,"x_min":0,"x_max":0,"o":"m 857 0 l 494 989 l 374 989 l 11 0 l 171 0 l 239 199 l 629 199 l 697 0 z m 588 326 l 283 326 l 438 765 z m 604 1215 b 431 1389 604 1311 526 1389 b 257 1215 335 1389 257 1311 b 431 1042 257 1119 335 1042 b 604 1215 526 1042 604 1119 z m 519 1215 b 431 1128 519 1167 479 1128 b 342 1215 382 1128 342 1167 b 431 1303 342 1264 382 1303 b 519 1215 479 1303 519 1264 z "},"Ç":{"ha":872,"x_min":0,"x_max":0,"o":"m 801 296 l 650 296 b 449 126 626 196 558 126 b 303 186 390 126 338 149 b 243 494 254 239 243 296 b 303 803 243 693 254 750 b 449 863 338 840 390 863 b 649 693 558 863 625 793 l 801 693 b 449 997 767 890 631 997 b 189 892 346 997 257 960 b 93 494 92 794 93 685 b 189 97 93 304 92 194 b 449 -8 257 29 346 -8 b 801 296 628 -8 768 99 z m 519 -89 l 406 -89 l 308 -293 l 449 -293 z "},"É":{"ha":838,"x_min":0,"x_max":0,"o":"m 761 0 l 761 135 l 279 135 l 279 432 l 690 432 l 690 565 l 279 565 l 279 854 l 761 854 l 761 989 l 129 989 l 129 0 z m 621 1310 l 464 1310 l 360 1085 l 467 1085 z "},"Ñ":{"ha":1001,"x_min":0,"x_max":0,"o":"m 874 0 l 874 989 l 724 989 l 724 294 l 267 989 l 129 989 l 129 0 l 279 0 l 279 696 l 736 0 z m 736 1179 l 669 1244 b 588 1201 632 1207 610 1201 b 511 1228 560 1201 539 1211 b 407 1261 474 1250 447 1261 b 263 1185 363 1261 325 1247 l 329 1119 b 410 1161 368 1158 386 1161 b 488 1135 438 1161 461 1150 b 592 1103 524 1114 551 1103 b 736 1179 635 1103 674 1117 z "},"Ö":{"ha":899,"x_min":0,"x_max":0,"o":"m 804 494 b 710 892 804 685 807 794 b 449 997 642 960 554 997 b 189 892 343 997 257 960 b 93 494 92 794 93 685 b 189 97 93 304 92 194 b 449 -8 257 29 343 -8 b 710 97 554 -8 642 29 b 804 494 807 194 804 304 z m 654 494 b 596 188 654 296 644 240 b 449 126 561 150 507 126 b 301 188 390 126 336 150 b 243 494 253 240 243 296 b 301 801 243 693 253 749 b 449 863 336 839 390 863 b 596 801 507 863 561 839 b 654 494 644 749 654 693 z m 663 1092 l 663 1242 l 535 1242 l 535 1092 z m 363 1092 l 363 1242 l 235 1242 l 235 1092 z "},"Ü":{"ha":938,"x_min":0,"x_max":0,"o":"m 824 333 l 824 989 l 674 989 l 674 340 b 468 126 674 208 592 126 b 264 340 344 126 264 208 l 264 989 l 114 989 l 114 333 b 468 -8 114 129 267 -8 b 824 333 669 -8 824 129 z m 683 1092 l 683 1242 l 556 1242 l 556 1092 z m 383 1092 l 383 1242 l 256 1242 l 256 1092 z "},"á":{"ha":736,"x_min":0,"x_max":0,"o":"m 631 0 l 631 471 b 340 713 631 631 533 713 b 88 611 224 713 154 689 l 181 524 b 335 592 219 574 257 592 b 489 460 444 592 489 549 l 489 410 l 303 410 b 60 207 142 410 60 325 b 115 56 60 147 79 93 b 304 -8 158 13 217 -8 b 492 64 392 -8 440 13 l 492 0 z m 489 254 b 458 150 489 204 479 171 b 326 110 421 114 381 110 b 197 210 238 110 197 146 b 324 311 197 274 240 311 l 489 311 z m 546 1057 l 389 1057 l 285 832 l 392 832 z "},"à":{"ha":736,"x_min":0,"x_max":0,"o":"m 631 0 l 631 471 b 340 713 631 631 533 713 b 88 611 224 713 154 689 l 181 524 b 335 592 219 574 257 592 b 489 460 444 592 489 549 l 489 410 l 303 410 b 60 207 142 410 60 325 b 115 56 60 147 79 93 b 304 -8 158 13 217 -8 b 492 64 392 -8 440 13 l 492 0 z m 489 254 b 458 150 489 204 479 171 b 326 110 421 114 381 110 b 197 210 238 110 197 146 b 324 311 197 274 240 311 l 489 311 z m 429 832 l 325 1057 l 168 1057 l 322 832 z "},"â":{"ha":736,"x_min":0,"x_max":0,"o":"m 631 0 l 631 471 b 340 713 631 631 533 713 b 88 611 224 713 154 689 l 181 524 b 335 592 219 574 257 592 b 489 460 444 592 489 549 l 489 410 l 303 410 b 60 207 142 410 60 325 b 115 56 60 147 79 93 b 304 -8 158 13 217 -8 b 492 64 392 -8 440 13 l 492 0 z m 489 254 b 458 150 489 204 479 171 b 326 110 421 114 381 110 b 197 210 238 110 197 146 b 324 311 197 274 240 311 l 489 311 z m 596 832 l 417 1056 l 297 1056 l 118 832 l 236 832 l 357 967 l 478 832 z "},"ä":{"ha":736,"x_min":0,"x_max":0,"o":"m 631 0 l 631 471 b 340 713 631 631 533 713 b 88 611 224 713 154 689 l 181 524 b 335 592 219 574 257 592 b 489 460 444 592 489 549 l 489 410 l 303 410 b 60 207 142 410 60 325 b 115 56 60 147 79 93 b 304 -8 158 13 217 -8 b 492 64 392 -8 440 13 l 492 0 z m 489 254 b 458 150 489 204 479 171 b 326 110 421 114 381 110 b 197 210 238 110 197 146 b 324 311 197 274 240 311 l 489 311 z m 571 839 l 571 989 l 443 989 l 443 839 z m 271 839 l 271 989 l 143 989 l 143 839 z "},"ã":{"ha":736,"x_min":0,"x_max":0,"o":"m 631 0 l 631 471 b 340 713 631 631 533 713 b 88 611 224 713 154 689 l 181 524 b 335 592 219 574 257 592 b 489 460 444 592 489 549 l 489 410 l 303 410 b 60 207 142 410 60 325 b 115 56 60 147 79 93 b 304 -8 158 13 217 -8 b 492 64 392 -8 440 13 l 492 0 z m 489 254 b 458 150 489 204 479 171 b 326 110 421 114 381 110 b 197 210 238 110 197 146 b 324 311 197 274 240 311 l 489 311 z m 592 926 l 525 992 b 443 949 488 954 465 949 b 367 975 415 949 394 958 b 263 1008 329 997 303 1008 b 118 932 218 1008 181 994 l 185 867 b 265 908 224 906 242 908 b 343 882 293 908 317 897 b 447 850 379 861 407 850 b 592 926 490 850 529 864 z "},"å":{"ha":736,"x_min":0,"x_max":0,"o":"m 631 0 l 631 471 b 340 713 631 631 533 713 b 88 611 224 713 154 689 l 181 524 b 335 592 219 574 257 592 b 489 460 444 592 489 549 l 489 410 l 303 410 b 60 207 142 410 60 325 b 115 56 60 147 79 93 b 304 -8 158 13 217 -8 b 492 64 392 -8 440 13 l 492 0 z m 489 254 b 458 150 489 204 479 171 b 326 110 421 114 381 110 b 197 210 238 110 197 146 b 324 311 197 274 240 311 l 489 311 z m 531 974 b 357 1147 531 1069 453 1147 b 183 974 261 1147 183 1069 b 357 800 183 878 261 800 b 531 974 453 800 531 878 z m 446 974 b 357 886 446 925 406 886 b 268 974 308 886 268 925 b 357 1061 268 1022 308 1061 b 446 974 406 1061 446 1022 z "},"ç":{"ha":678,"x_min":0,"x_max":0,"o":"m 622 92 l 525 185 b 390 118 481 136 446 118 b 260 181 336 118 290 140 b 218 353 229 219 218 271 b 260 524 218 435 229 485 b 390 586 290 564 336 586 b 525 519 446 586 481 568 l 622 614 b 390 713 556 685 488 713 b 76 353 232 713 76 617 b 390 -8 76 89 232 -8 b 622 92 488 -8 556 21 z m 443 -89 l 329 -89 l 232 -293 l 372 -293 z "},"é":{"ha":749,"x_min":0,"x_max":0,"o":"m 674 311 l 674 374 b 375 713 674 574 564 713 b 76 353 194 713 76 581 b 393 -8 76 85 217 -8 b 657 101 517 -8 585 29 l 567 186 b 396 114 517 136 475 114 b 217 311 281 114 217 190 z m 533 410 l 217 410 b 235 506 218 453 221 474 b 375 594 257 558 308 594 b 514 506 442 594 492 558 b 533 410 528 474 532 453 z m 568 1057 l 411 1057 l 307 832 l 414 832 z "},"è":{"ha":749,"x_min":0,"x_max":0,"o":"m 674 311 l 674 374 b 375 713 674 574 564 713 b 76 353 194 713 76 581 b 393 -8 76 85 217 -8 b 657 101 517 -8 585 29 l 567 186 b 396 114 517 136 475 114 b 217 311 281 114 217 190 z m 533 410 l 217 410 b 235 506 218 453 221 474 b 375 594 257 558 308 594 b 514 506 442 594 492 558 b 533 410 528 474 532 453 z m 451 832 l 347 1057 l 190 1057 l 344 832 z "},"ê":{"ha":749,"x_min":0,"x_max":0,"o":"m 674 311 l 674 374 b 375 713 674 574 564 713 b 76 353 194 713 76 581 b 393 -8 76 85 217 -8 b 657 101 517 -8 585 29 l 567 186 b 396 114 517 136 475 114 b 217 311 281 114 217 190 z m 533 410 l 217 410 b 235 506 218 453 221 474 b 375 594 257 558 308 594 b 514 506 442 594 492 558 b 533 410 528 474 532 453 z m 618 832 l 439 1056 l 319 1056 l 140 832 l 258 832 l 379 967 l 500 832 z "},"ë":{"ha":749,"x_min":0,"x_max":0,"o":"m 674 311 l 674 374 b 375 713 674 574 564 713 b 76 353 194 713 76 581 b 393 -8 76 85 217 -8 b 657 101 517 -8 585 29 l 567 186 b 396 114 517 136 475 114 b 217 311 281 114 217 190 z m 533 410 l 217 410 b 235 506 218 453 221 474 b 375 594 257 558 308 594 b 514 506 442 594 492 558 b 533 410 528 474 532 453 z m 593 839 l 593 989 l 465 989 l 465 839 z m 293 839 l 293 989 l 165 989 l 165 839 z "},"í":{"ha":367,"x_min":0,"x_max":0,"o":"m 254 0 l 254 704 l 113 704 l 113 0 z m 374 1057 l 217 1057 l 113 832 l 219 832 z "},"ì":{"ha":367,"x_min":0,"x_max":0,"o":"m 254 0 l 254 704 l 113 704 l 113 0 z m 374 832 l 269 1057 l 113 1057 l 267 832 z "},"î":{"ha":367,"x_min":0,"x_max":0,"o":"m 254 0 l 254 704 l 113 704 l 113 0 z m 590 832 l 411 1056 l 292 1056 l 113 832 l 231 832 l 351 967 l 472 832 z "},"ï":{"ha":367,"x_min":0,"x_max":0,"o":"m 254 0 l 254 704 l 113 704 l 113 0 z m 540 839 l 540 989 l 413 989 l 413 839 z m 240 839 l 240 989 l 113 989 l 113 839 z "},"ñ":{"ha":789,"x_min":0,"x_max":0,"o":"m 683 0 l 683 450 b 613 649 683 529 667 596 b 439 713 571 689 511 713 b 251 633 368 713 300 686 l 251 704 l 113 704 l 113 0 l 254 0 l 254 429 b 400 586 254 538 321 586 b 542 429 479 586 542 539 l 542 0 z m 633 926 l 567 992 b 485 949 529 954 507 949 b 408 975 457 949 436 958 b 304 1008 371 997 344 1008 b 160 932 260 1008 222 994 l 226 867 b 307 908 265 906 283 908 b 385 882 335 908 358 897 b 489 850 421 861 449 850 b 633 926 532 850 571 864 z "},"ó":{"ha":746,"x_min":0,"x_max":0,"o":"m 667 353 b 583 629 667 471 650 560 b 372 713 538 676 468 713 b 163 629 276 713 208 676 b 79 353 96 560 79 471 b 163 75 79 233 96 144 b 372 -8 208 28 276 -8 b 583 75 468 -8 538 28 b 667 353 650 144 667 233 z m 525 353 b 476 160 525 276 519 203 b 372 118 450 133 414 118 b 269 160 331 118 296 133 b 221 353 226 203 221 276 b 269 546 221 429 226 503 b 372 586 296 572 331 586 b 476 546 414 586 450 572 b 525 353 519 503 525 429 z m 561 1057 l 404 1057 l 300 832 l 407 832 z "},"ò":{"ha":746,"x_min":0,"x_max":0,"o":"m 667 353 b 583 629 667 471 650 560 b 372 713 538 676 468 713 b 163 629 276 713 208 676 b 79 353 96 560 79 471 b 163 75 79 233 96 144 b 372 -8 208 28 276 -8 b 583 75 468 -8 538 28 b 667 353 650 144 667 233 z m 525 353 b 476 160 525 276 519 203 b 372 118 450 133 414 118 b 269 160 331 118 296 133 b 221 353 226 203 221 276 b 269 546 221 429 226 503 b 372 586 296 572 331 586 b 476 546 414 586 450 572 b 525 353 519 503 525 429 z m 435 832 l 331 1057 l 174 1057 l 328 832 z "},"ô":{"ha":746,"x_min":0,"x_max":0,"o":"m 667 353 b 583 629 667 471 650 560 b 372 713 538 676 468 713 b 163 629 276 713 208 676 b 79 353 96 560 79 471 b 163 75 79 233 96 144 b 372 -8 208 28 276 -8 b 583 75 468 -8 538 28 b 667 353 650 144 667 233 z m 525 353 b 476 160 525 276 519 203 b 372 118 450 133 414 118 b 269 160 331 118 296 133 b 221 353 226 203 221 276 b 269 546 221 429 226 503 b 372 586 296 572 331 586 b 476 546 414 586 450 572 b 525 353 519 503 525 429 z m 611 832 l 432 1056 l 313 1056 l 133 832 l 251 832 l 372 967 l 493 832 z "},"ö":{"ha":746,"x_min":0,"x_max":0,"o":"m 667 353 b 583 629 667 471 650 560 b 372 713 538 676 468 713 b 163 629 276 713 208 676 b 79 353 96 560 79 471 b 163 75 79 233 96 144 b 372 -8 208 28 276 -8 b 583 75 468 -8 538 28 b 667 353 650 144 667 233 z m 525 353 b 476 160 525 276 519 203 b 372 118 450 133 414 118 b 269 160 331 118 296 133 b 221 353 226 203 221 276 b 269 546 221 429 226 503 b 372 586 296 572 331 586 b 476 546 414 586 450 572 b 525 353 519 503 525 429 z m 586 839 l 586 989 l 458 989 l 458 839 z m 286 839 l 286 989 l 158 989 l 158 839 z "},"õ":{"ha":746,"x_min":0,"x_max":0,"o":"m 667 353 b 583 629 667 471 650 560 b 372 713 538 676 468 713 b 163 629 276 713 208 676 b 79 353 96 560 79 471 b 163 75 79 233 96 144 b 372 -8 208 28 276 -8 b 583 75 468 -8 538 28 b 667 353 650 144 667 233 z m 525 353 b 476 160 525 276 519 203 b 372 118 450 133 414 118 b 269 160 331 118 296 133 b 221 353 226 203 221 276 b 269 546 221 429 226 503 b 372 586 296 572 331 586 b 476 546 414 586 450 572 b 525 353 519 503 525 429 z m 607 926 l 540 992 b 458 949 503 954 481 949 b 382 975 431 949 410 958 b 278 1008 344 997 318 1008 b 133 932 233 1008 196 994 l 200 867 b 281 908 239 906 257 908 b 358 882 308 908 332 897 b 463 850 394 861 422 850 b 607 926 506 850 544 864 z "},"ú":{"ha":789,"x_min":0,"x_max":0,"o":"m 676 0 l 676 704 l 535 704 l 535 275 b 389 118 535 167 468 118 b 247 275 310 118 247 165 l 247 704 l 106 704 l 106 254 b 176 56 106 175 122 108 b 350 -8 218 15 278 -8 b 538 71 421 -8 489 18 l 538 0 z m 579 1057 l 422 1057 l 318 832 l 425 832 z "},"ù":{"ha":789,"x_min":0,"x_max":0,"o":"m 676 0 l 676 704 l 535 704 l 535 275 b 389 118 535 167 468 118 b 247 275 310 118 247 165 l 247 704 l 106 704 l 106 254 b 176 56 106 175 122 108 b 350 -8 218 15 278 -8 b 538 71 421 -8 489 18 l 538 0 z m 463 832 l 358 1057 l 201 1057 l 356 832 z "},"û":{"ha":789,"x_min":0,"x_max":0,"o":"m 676 0 l 676 704 l 535 704 l 535 275 b 389 118 535 167 468 118 b 247 275 310 118 247 165 l 247 704 l 106 704 l 106 254 b 176 56 106 175 122 108 b 350 -8 218 15 278 -8 b 538 71 421 -8 489 18 l 538 0 z m 629 832 l 450 1056 l 331 1056 l 151 832 l 269 832 l 390 967 l 511 832 z "},"ü":{"ha":789,"x_min":0,"x_max":0,"o":"m 676 0 l 676 704 l 535 704 l 535 275 b 389 118 535 167 468 118 b 247 275 310 118 247 165 l 247 704 l 106 704 l 106 254 b 176 56 106 175 122 108 b 350 -8 218 15 278 -8 b 538 71 421 -8 489 18 l 538 0 z m 604 839 l 604 989 l 476 989 l 476 839 z m 304 839 l 304 989 l 176 989 l 176 839 z "},"°":{"ha":654,"x_min":0,"x_max":0,"o":"m 569 763 b 326 1006 569 896 460 1006 b 85 763 193 1006 85 896 b 326 521 85 629 193 521 b 569 763 460 521 569 629 z m 453 763 b 326 635 453 690 397 635 b 201 763 256 635 201 690 b 326 892 201 835 256 892 b 453 763 397 892 453 835 z "},"®":{"ha":1197,"x_min":0,"x_max":0,"o":"m 1101 494 b 599 997 1101 772 876 997 b 96 494 321 997 96 772 b 599 -8 96 217 321 -8 b 1101 494 876 -8 1101 217 z m 1000 494 b 599 85 1000 265 824 85 b 196 494 374 85 196 265 b 599 904 196 724 374 904 b 1000 494 824 904 1000 724 z m 817 224 l 696 453 b 803 600 756 474 803 524 b 628 767 803 690 731 767 l 424 767 l 424 224 l 524 224 l 524 439 l 593 439 l 704 224 z m 704 600 b 615 518 704 554 668 518 l 524 518 l 524 682 l 615 682 b 704 600 668 682 704 646 z "},"©":{"ha":1197,"x_min":0,"x_max":0,"o":"m 1101 494 b 599 997 1101 772 876 997 b 96 494 321 997 96 772 b 599 -8 96 217 321 -8 b 1101 494 876 -8 1101 217 z m 1000 494 b 599 86 1000 265 822 86 b 197 494 375 86 197 265 b 599 903 197 724 375 903 b 1000 494 822 903 1000 724 z m 789 289 l 725 354 b 607 306 683 318 654 306 b 457 494 501 306 457 386 b 607 683 457 603 501 683 b 725 635 654 683 683 671 l 789 700 b 607 772 735 747 685 772 b 358 494 457 772 358 664 b 607 217 358 325 457 217 b 789 289 685 217 736 242 z "},"™":{"ha":1226,"x_min":0,"x_max":0,"o":"m 1142 396 l 1142 989 l 1035 989 l 860 651 l 686 989 l 579 989 l 579 396 l 686 396 l 686 783 l 811 535 l 910 535 l 1035 783 l 1035 396 z m 481 893 l 481 989 l 57 989 l 57 893 l 215 893 l 215 396 l 321 396 l 321 893 z "},"≠":{"ha":793,"x_min":0,"x_max":0,"o":"m 722 185 l 722 317 l 408 317 l 531 454 l 722 454 l 722 586 l 638 586 l 722 682 l 635 753 l 490 586 l 71 586 l 71 454 l 385 454 l 263 317 l 71 317 l 71 185 l 156 185 l 71 89 l 158 18 l 301 185 z "},"∞":{"ha":1153,"x_min":0,"x_max":0,"o":"m 1068 383 b 825 626 1068 519 979 626 b 576 488 726 626 653 578 b 328 626 500 578 422 626 b 85 383 174 626 85 519 b 328 140 85 247 174 140 b 576 279 424 140 500 189 b 825 142 653 189 728 142 b 1068 383 979 142 1068 247 z m 932 381 b 822 271 932 314 883 271 b 671 381 764 271 724 318 b 822 489 724 443 764 489 b 932 381 883 489 932 447 z m 482 381 b 329 271 429 318 388 271 b 221 381 268 271 221 314 b 329 490 221 447 268 490 b 482 381 388 490 429 443 z "},"±":{"ha":740,"x_min":0,"x_max":0,"o":"m 669 439 l 669 571 l 436 571 l 436 804 l 304 804 l 304 571 l 71 571 l 71 439 l 304 439 l 304 204 l 436 204 l 436 439 z m 669 0 l 669 132 l 71 132 l 71 0 z "},"≤":{"ha":1426,"x_min":0,"x_max":0,"o":"m 1213 -19 l 482 711 l 1158 710 l 1031 838 l 260 838 l 260 68 l 388 -60 l 388 617 l 1118 -115 z "},"≥":{"ha":1426,"x_min":0,"x_max":0,"o":"m 1165 68 l 1165 838 l 396 838 l 268 710 l 944 713 l 213 -19 l 308 -115 l 1039 617 l 1038 -60 z "},"µ":{"ha":790,"x_min":0,"x_max":0,"o":"m 676 0 l 676 704 l 535 704 l 535 275 b 390 118 535 167 469 118 b 247 275 311 118 247 165 l 247 704 l 106 704 l 106 -285 l 247 -285 l 247 26 b 351 -8 274 4 308 -8 b 538 71 422 -8 489 18 l 538 0 z "},"∂":{"ha":763,"x_min":0,"x_max":0,"o":"m 650 346 l 650 682 b 349 997 650 867 549 997 b 101 904 242 997 175 972 l 190 815 b 343 876 235 857 274 876 b 508 707 465 876 508 786 l 508 642 b 360 700 465 690 414 700 b 164 621 268 700 204 663 b 85 346 100 554 85 467 b 164 74 85 229 99 142 b 368 -8 208 26 276 -8 b 571 74 460 -8 526 26 b 650 346 636 142 650 229 z m 508 346 b 464 158 508 272 504 201 b 368 118 439 133 407 118 b 271 158 329 118 296 133 b 226 346 231 201 226 272 b 271 533 226 419 231 490 b 368 574 296 558 329 574 b 464 533 407 574 439 558 b 508 346 504 490 508 419 z "},"∑":{"ha":767,"x_min":0,"x_max":0,"o":"m 706 -285 l 706 -150 l 240 -150 l 468 331 l 468 469 l 244 921 l 701 921 l 701 1056 l 69 1056 l 69 933 l 338 401 l 67 -162 l 67 -285 z "},"∏":{"ha":958,"x_min":0,"x_max":0,"o":"m 831 -285 l 831 1056 l 129 1056 l 129 -285 l 279 -285 l 279 922 l 679 922 l 679 -285 z "},"π":{"ha":821,"x_min":0,"x_max":0,"o":"m 699 0 l 699 704 l 122 704 l 122 0 l 263 0 l 263 572 l 560 572 l 560 0 z "},"∫":{"ha":601,"x_min":0,"x_max":0,"o":"m 535 879 l 535 1000 l 456 1000 b 226 775 317 1000 226 915 l 226 -57 b 128 -160 226 -125 193 -160 l 67 -160 l 67 -281 l 146 -281 b 374 -56 285 -281 374 -196 l 374 776 b 474 879 374 844 408 879 z "},"Ω":{"ha":899,"x_min":0,"x_max":0,"o":"m 804 0 l 804 133 l 707 133 b 771 218 738 161 757 189 b 804 494 804 292 804 392 b 710 892 804 685 807 794 b 449 997 642 960 554 997 b 189 892 343 997 257 960 b 93 494 92 794 93 685 b 128 218 93 392 94 292 b 190 133 142 189 160 161 l 93 133 l 93 0 l 381 0 l 381 121 b 281 204 338 142 306 165 b 244 488 251 249 244 325 b 303 800 244 686 254 747 b 449 863 339 838 390 863 b 596 800 507 863 560 838 b 654 488 644 747 654 686 b 617 204 654 325 646 249 b 517 121 592 165 560 142 l 517 0 z "},"¬":{"ha":740,"x_min":0,"x_max":0,"o":"m 672 136 l 672 464 l 67 464 l 67 332 l 540 332 l 540 136 z "},"√":{"ha":806,"x_min":0,"x_max":0,"o":"m 764 854 l 764 989 l 525 989 l 299 269 l 161 704 l 7 704 l 240 0 l 357 0 l 638 854 z "},"≈":{"ha":797,"x_min":0,"x_max":0,"o":"m 738 528 l 647 617 b 529 557 594 564 568 557 b 418 590 490 557 457 571 b 264 635 361 618 318 635 b 60 528 190 635 142 610 l 149 439 b 267 499 201 492 228 499 b 376 465 306 499 338 485 b 532 421 433 438 478 421 b 738 528 606 421 656 446 z m 738 247 l 649 336 b 531 275 596 283 569 275 b 419 308 492 275 458 289 b 265 354 363 336 319 354 b 60 246 192 354 142 328 l 149 157 b 268 218 201 210 229 218 b 378 185 307 218 339 204 b 533 139 435 157 479 139 b 738 247 607 139 656 165 z "},"Δ":{"ha":860,"x_min":0,"x_max":0,"o":"m 851 0 l 490 989 l 369 989 l 7 0 z m 656 128 l 207 128 l 432 765 z "}," ":{"ha":333,"x_min":0,"x_max":0,"o":""},"À":{"ha":868,"x_min":0,"x_max":0,"o":"m 857 0 l 494 989 l 374 989 l 11 0 l 171 0 l 239 199 l 629 199 l 697 0 z m 588 326 l 283 326 l 438 765 z m 501 1085 l 397 1310 l 240 1310 l 394 1085 z "},"Ã":{"ha":868,"x_min":0,"x_max":0,"o":"m 857 0 l 494 989 l 374 989 l 11 0 l 171 0 l 239 199 l 629 199 l 697 0 z m 588 326 l 283 326 l 438 765 z m 664 1179 l 597 1244 b 515 1201 560 1207 538 1201 b 439 1228 488 1201 467 1211 b 335 1261 401 1250 375 1261 b 190 1185 290 1261 253 1247 l 257 1119 b 338 1161 296 1158 314 1161 b 415 1135 365 1161 389 1150 b 519 1103 451 1114 479 1103 b 664 1179 563 1103 601 1117 z "},"Õ":{"ha":899,"x_min":0,"x_max":0,"o":"m 804 494 b 710 892 804 685 807 794 b 449 997 642 960 554 997 b 189 892 343 997 257 960 b 93 494 92 794 93 685 b 189 97 93 304 92 194 b 449 -8 257 29 343 -8 b 710 97 554 -8 642 29 b 804 494 807 194 804 304 z m 654 494 b 596 188 654 296 644 240 b 449 126 561 150 507 126 b 301 188 390 126 336 150 b 243 494 253 240 243 296 b 301 801 243 693 253 749 b 449 863 336 839 390 863 b 596 801 507 863 561 839 b 654 494 644 749 654 693 z m 683 1179 l 617 1244 b 535 1201 579 1207 557 1201 b 458 1228 507 1201 486 1211 b 354 1261 421 1250 394 1261 b 210 1185 310 1261 272 1247 l 276 1119 b 357 1161 315 1158 333 1161 b 435 1135 385 1161 408 1150 b 539 1103 471 1114 499 1103 b 683 1179 582 1103 621 1117 z "},"÷":{"ha":740,"x_min":0,"x_max":0,"o":"m 446 575 l 446 726 l 294 726 l 294 575 z m 672 319 l 672 451 l 67 451 l 67 319 z m 446 46 l 446 197 l 294 197 l 294 46 z "},"◊":{"ha":892,"x_min":0,"x_max":0,"o":"m 808 481 l 446 988 l 85 481 l 446 -26 z m 649 481 l 446 192 l 243 481 l 446 768 z "},"ÿ":{"ha":650,"x_min":0,"x_max":0,"o":"m 644 704 l 493 704 l 329 208 l 161 704 l 11 704 l 257 33 l 218 -76 b 117 -151 197 -133 176 -151 l 81 -151 l 81 -279 l 138 -279 b 282 -228 192 -279 243 -267 b 333 -140 303 -207 319 -179 z m 539 839 l 539 989 l 411 989 l 411 839 z m 239 839 l 239 989 l 111 989 l 111 839 z "},"Ÿ":{"ha":756,"x_min":0,"x_max":0,"o":"m 749 989 l 585 989 l 378 554 l 171 989 l 7 989 l 303 407 l 303 0 l 453 0 l 453 407 z m 592 1092 l 592 1242 l 464 1242 l 464 1092 z m 292 1092 l 292 1242 l 164 1242 l 164 1092 z "},"Â":{"ha":868,"x_min":0,"x_max":0,"o":"m 857 0 l 494 989 l 374 989 l 11 0 l 171 0 l 239 199 l 629 199 l 697 0 z m 588 326 l 283 326 l 438 765 z m 669 1085 l 490 1308 l 371 1308 l 192 1085 l 310 1085 l 431 1219 l 551 1085 z "},"Ê":{"ha":838,"x_min":0,"x_max":0,"o":"m 761 0 l 761 135 l 279 135 l 279 432 l 690 432 l 690 565 l 279 565 l 279 854 l 761 854 l 761 989 l 129 989 l 129 0 z m 671 1085 l 492 1308 l 372 1308 l 193 1085 l 311 1085 l 432 1219 l 553 1085 z "},"Á":{"ha":868,"x_min":0,"x_max":0,"o":"m 857 0 l 494 989 l 374 989 l 11 0 l 171 0 l 239 199 l 629 199 l 697 0 z m 588 326 l 283 326 l 438 765 z m 619 1310 l 463 1310 l 358 1085 l 465 1085 z "},"Ë":{"ha":838,"x_min":0,"x_max":0,"o":"m 761 0 l 761 135 l 279 135 l 279 432 l 690 432 l 690 565 l 279 565 l 279 854 l 761 854 l 761 989 l 129 989 l 129 0 z m 646 1092 l 646 1242 l 518 1242 l 518 1092 z m 346 1092 l 346 1242 l 218 1242 l 218 1092 z "},"È":{"ha":838,"x_min":0,"x_max":0,"o":"m 761 0 l 761 135 l 279 135 l 279 432 l 690 432 l 690 565 l 279 565 l 279 854 l 761 854 l 761 989 l 129 989 l 129 0 z m 504 1085 l 400 1310 l 243 1310 l 397 1085 z "},"Í":{"ha":408,"x_min":0,"x_max":0,"o":"m 279 0 l 279 989 l 129 989 l 129 0 z m 390 1310 l 233 1310 l 129 1085 l 236 1085 z "},"Î":{"ha":408,"x_min":0,"x_max":0,"o":"m 279 0 l 279 989 l 129 989 l 129 0 z m 607 1085 l 428 1308 l 308 1308 l 129 1085 l 247 1085 l 368 1219 l 489 1085 z "},"Ï":{"ha":408,"x_min":0,"x_max":0,"o":"m 279 0 l 279 989 l 129 989 l 129 0 z m 557 1092 l 557 1242 l 429 1242 l 429 1092 z m 257 1092 l 257 1242 l 129 1242 l 129 1092 z "},"Ì":{"ha":408,"x_min":0,"x_max":0,"o":"m 279 0 l 279 989 l 129 989 l 129 0 z m 390 1085 l 286 1310 l 129 1310 l 283 1085 z "},"Ó":{"ha":899,"x_min":0,"x_max":0,"o":"m 804 494 b 710 892 804 685 807 794 b 449 997 642 960 554 997 b 189 892 343 997 257 960 b 93 494 92 794 93 685 b 189 97 93 304 92 194 b 449 -8 257 29 343 -8 b 710 97 554 -8 642 29 b 804 494 807 194 804 304 z m 654 494 b 596 188 654 296 644 240 b 449 126 561 150 507 126 b 301 188 390 126 336 150 b 243 494 253 240 243 296 b 301 801 243 693 253 749 b 449 863 336 839 390 863 b 596 801 507 863 561 839 b 654 494 644 749 654 693 z m 638 1310 l 481 1310 l 376 1085 l 483 1085 z "},"Ô":{"ha":899,"x_min":0,"x_max":0,"o":"m 804 494 b 710 892 804 685 807 794 b 449 997 642 960 554 997 b 189 892 343 997 257 960 b 93 494 92 794 93 685 b 189 97 93 304 92 194 b 449 -8 257 29 343 -8 b 710 97 554 -8 642 29 b 804 494 807 194 804 304 z m 654 494 b 596 188 654 296 644 240 b 449 126 561 150 507 126 b 301 188 390 126 336 150 b 243 494 253 240 243 296 b 301 801 243 693 253 749 b 449 863 336 839 390 863 b 596 801 507 863 561 839 b 654 494 644 749 654 693 z m 688 1085 l 508 1308 l 389 1308 l 210 1085 l 328 1085 l 449 1219 l 569 1085 z "},"Ò":{"ha":899,"x_min":0,"x_max":0,"o":"m 804 494 b 710 892 804 685 807 794 b 449 997 642 960 554 997 b 189 892 343 997 257 960 b 93 494 92 794 93 685 b 189 97 93 304 92 194 b 449 -8 257 29 343 -8 b 710 97 554 -8 642 29 b 804 494 807 194 804 304 z m 654 494 b 596 188 654 296 644 240 b 449 126 561 150 507 126 b 301 188 390 126 336 150 b 243 494 253 240 243 296 b 301 801 243 693 253 749 b 449 863 336 839 390 863 b 596 801 507 863 561 839 b 654 494 644 749 654 693 z m 521 1085 l 417 1310 l 260 1310 l 414 1085 z "},"Ú":{"ha":938,"x_min":0,"x_max":0,"o":"m 824 333 l 824 989 l 674 989 l 674 340 b 468 126 674 208 592 126 b 264 340 344 126 264 208 l 264 989 l 114 989 l 114 333 b 468 -8 114 129 267 -8 b 824 333 669 -8 824 129 z m 658 1310 l 501 1310 l 397 1085 l 504 1085 z "},"Û":{"ha":938,"x_min":0,"x_max":0,"o":"m 824 333 l 824 989 l 674 989 l 674 340 b 468 126 674 208 592 126 b 264 340 344 126 264 208 l 264 989 l 114 989 l 114 333 b 468 -8 114 129 267 -8 b 824 333 669 -8 824 129 z m 708 1085 l 529 1308 l 410 1308 l 231 1085 l 349 1085 l 469 1219 l 590 1085 z "},"Ù":{"ha":938,"x_min":0,"x_max":0,"o":"m 824 333 l 824 989 l 674 989 l 674 340 b 468 126 674 208 592 126 b 264 340 344 126 264 208 l 264 989 l 114 989 l 114 333 b 468 -8 114 129 267 -8 b 824 333 669 -8 824 129 z m 542 1085 l 438 1310 l 281 1310 l 435 1085 z "}}}
